<?xml version="1.0" standalone="no"?>
<!DOCTYPE svg PUBLIC "-//W3C//DTD SVG 20010904//EN"
 "http://www.w3.org/TR/2001/REC-SVG-20010904/DTD/svg10.dtd">
<svg version="1.0" xmlns="http://www.w3.org/2000/svg"
 width="920.000000pt" height="920.000000pt" viewBox="0 0 920.000000 920.000000"
 preserveAspectRatio="xMidYMid meet">

<g transform="translate(0.000000,920.000000) scale(0.100000,-0.100000)"
fill="#000000" stroke="none">
<path d="M1447 8428 c-176 -15 -331 -90 -462 -223 -87 -88 -140 -173 -183
-295 l-27 -75 -3 -3203 c-3 -3602 -10 -3271 78 -3450 42 -85 65 -116 133 -185
92 -92 187 -153 305 -195 l77 -27 3208 -3 3208 -2 82 21 c132 33 247 99 347
199 73 72 94 101 138 190 32 64 58 133 67 177 13 63 15 487 13 3275 l-3 3203
-27 75 c-44 124 -96 208 -183 296 -114 115 -248 187 -395 214 -50 10 -801 13
-3175 14 -1710 0 -3149 -2 -3198 -6z m3168 -371 c247 -61 431 -163 551 -306
64 -77 145 -236 168 -332 73 -301 16 -640 -148 -887 -155 -233 -466 -445 -780
-532 -85 -24 -92 -30 -34 -30 75 0 149 -18 225 -55 118 -58 172 -137 219 -324
21 -82 24 -117 24 -275 0 -499 62 -970 141 -1070 l20 -26 -529 0 -530 0 -37
43 c-50 58 -81 121 -94 192 -6 33 -12 164 -15 290 -7 352 -41 566 -110 708
-42 84 -59 106 -111 141 l-38 26 -491 0 -491 0 -175 -700 -175 -700 -527 0
c-418 0 -526 3 -523 13 2 6 63 224 136 482 72 259 155 556 184 660 108 385
198 708 405 1445 116 415 243 869 282 1008 l71 253 1156 -4 c1049 -3 1162 -5
1226 -20z m1714 -2847 c16 -200 99 -1218 107 -1307 l6 -73 797 -2 797 -3 -757
-530 c-544 -380 -758 -535 -759 -549 0 -10 27 -370 60 -799 33 -429 59 -781
57 -783 -2 -2 -241 217 -531 486 -290 270 -531 490 -536 490 -5 0 -348 -220
-762 -489 -414 -270 -754 -488 -756 -487 -1 2 40 82 91 177 52 96 246 455 432
798 l337 624 -533 533 -534 534 802 0 801 0 38 68 c36 64 441 779 703 1239 69
122 126 221 127 220 1 -1 7 -67 13 -147z"/>
<path d="M3057 7258 c-98 -457 -197 -926 -197 -932 0 -4 258 -5 573 -4 l572 3
50 25 c107 52 185 167 227 336 19 74 22 117 23 259 0 163 -1 172 -26 226 -37
79 -90 133 -167 171 l-67 33 -481 3 -481 3 -26 -123z"/>
</g>
</svg>
